<?xml version="1.0" standalone="no"?>
<!DOCTYPE svg PUBLIC "-//W3C//DTD SVG 20010904//EN" "http://www.w3.org/TR/2001/REC-SVG-20010904/DTD/svg10.dtd">
<svg version="1.0" xmlns="http://www.w3.org/2000/svg"
    width="512.000000pt" height="512.000000pt" viewBox="0 0 512.000000 512.000000"
    preserveAspectRatio="xMidYMid meet">

    <g transform="translate(0.000000,512.000000) scale(0.100000,-0.100000)"
        fill="#fafafa" stroke="none">
        <path
            d="M3690 4904 c-52 -10 -127 -37 -170 -61 -55 -31 -788 -758 -830 -824
-96 -147 -100 -342 -13 -499 31 -55 758 -788 824 -830 81 -53 153 -73 259 -73
106 0 178 20 259 73 66 42 793 775 824 830 84 150 84 330 0 480 -31 55 -758
788 -824 830 -87 56 -241 91 -329 74z m135 -333 c26 -12 159 -139 392 -372
387 -390 387 -390 363 -479 -10 -40 -49 -82 -373 -407 -400 -399 -400 -400
-489 -374 -37 11 -95 64 -405 374 -310 310 -363 368 -374 405 -26 88 -24 90
364 481 349 351 396 391 457 391 14 0 43 -9 65 -19z" />
        <path
            d="M681 4784 c-169 -45 -301 -180 -346 -351 -22 -85 -22 -1261 0 -1346
45 -173 178 -307 350 -352 50 -13 153 -15 666 -15 361 0 628 4 660 10 183 34
344 195 379 379 6 33 10 290 10 660 0 506 -2 616 -15 664 -45 173 -178 307
-350 352 -85 22 -1271 21 -1354 -1z m1325 -330 c15 -11 37 -33 48 -48 21 -27
21 -37 21 -646 0 -609 0 -619 -21 -646 -11 -15 -33 -37 -48 -48 -27 -21 -37
-21 -646 -21 -609 0 -619 0 -646 21 -15 11 -37 33 -48 48 -21 27 -21 39 -24
619 -2 326 0 606 3 624 7 40 49 91 90 109 24 11 148 13 637 11 595 -2 607 -2
634 -23z" />
        <path
            d="M681 2384 c-169 -45 -301 -180 -346 -351 -22 -85 -22 -1261 0 -1346
45 -173 178 -307 350 -352 50 -13 153 -15 666 -15 361 0 628 4 660 10 183 34
344 195 379 379 6 33 10 290 10 660 0 506 -2 616 -15 664 -45 173 -178 307
-350 352 -85 22 -1271 21 -1354 -1z m1325 -330 c15 -11 37 -33 48 -48 21 -27
21 -37 21 -646 0 -609 0 -619 -21 -646 -11 -15 -33 -37 -48 -48 -27 -21 -37
-21 -646 -21 -609 0 -619 0 -646 21 -15 11 -37 33 -48 48 -21 27 -21 39 -24
619 -2 326 0 606 3 624 7 40 49 91 90 109 24 11 148 13 637 11 595 -2 607 -2
634 -23z" />
        <path
            d="M3081 2384 c-169 -45 -301 -180 -346 -351 -22 -85 -22 -1261 0 -1346
45 -173 178 -307 350 -352 50 -13 153 -15 666 -15 361 0 628 4 660 10 183 34
344 195 379 379 6 33 10 290 10 660 0 506 -2 616 -15 664 -45 173 -178 307
-350 352 -85 22 -1271 21 -1354 -1z m1325 -330 c15 -11 37 -33 48 -48 21 -27
21 -37 21 -646 0 -609 0 -619 -21 -646 -11 -15 -33 -37 -48 -48 -27 -21 -37
-21 -646 -21 -609 0 -619 0 -646 21 -15 11 -37 33 -48 48 -21 27 -21 39 -24
619 -2 326 0 606 3 624 7 40 49 91 90 109 24 11 148 13 637 11 595 -2 607 -2
634 -23z" />
    </g>
</svg>