<?xml version="1.0" encoding="UTF-8"?>
<svg version="1.1" xmlns="http://www.w3.org/2000/svg" width="512" height="512">
<path d="M0 0 C-0.11532699 2.50077472 -0.24202925 5.00014998 -0.375 7.5 C-0.4059375 8.19609375 -0.436875 8.8921875 -0.46875 9.609375 C-0.92507902 17.82329739 -2.49010891 24.06836632 -7.3125 30.875 C-7.75126465 31.51228027 -8.1900293 32.14956055 -8.64208984 32.80615234 C-10.07997791 34.88154255 -11.53758974 36.94182835 -13 39 C-13.48936035 39.69416016 -13.9787207 40.38832031 -14.48291016 41.10351562 C-22.79307183 52.86658586 -31.51534028 64.30935499 -40.27441406 75.73974609 C-42.41250629 78.54032021 -44.52158797 81.36079573 -46.625 84.1875 C-53.79991892 93.77679277 -61.0992377 103.29408635 -68.71875 112.53515625 C-69.31204102 113.25541992 -69.90533203 113.97568359 -70.51660156 114.71777344 C-71.64285923 116.0788003 -72.7747281 117.43521021 -73.91308594 118.78613281 C-76.62396511 122.05740933 -78.71132753 124.87467654 -80 129 C-79.56284668 129.47961182 -79.12569336 129.95922363 -78.67529297 130.45336914 C-74.41225508 135.21431789 -70.64070516 140.10444935 -67.125 145.4375 C-66.61106689 146.21681885 -66.09713379 146.9961377 -65.56762695 147.79907227 C-50.84994343 170.45977777 -41.06525225 196.05429418 -38 223 C-37.88914062 223.93328125 -37.77828125 224.8665625 -37.6640625 225.828125 C-33.01158776 271.84990219 -46.69883428 317.83414369 -75.5625 353.875 C-77.02790932 355.59514893 -78.50739846 357.30339237 -80 359 C-80.82757813 359.96035156 -81.65515625 360.92070312 -82.5078125 361.91015625 C-111.72013473 395.23856383 -154.62783531 415.25462208 -198.60302734 418.58642578 C-201.06813261 418.74510026 -203.53273578 418.88019846 -206 419 C-207.08796875 419.05929687 -208.1759375 419.11859375 -209.296875 419.1796875 C-239.97229695 419.95957111 -270.23850134 411.63648119 -297 397 C-297.62326172 396.66274902 -298.24652344 396.32549805 -298.88867188 395.97802734 C-309.55588926 390.131038 -318.7570181 382.86757021 -328 375 C-328.83789062 374.30519531 -329.67578125 373.61039062 -330.5390625 372.89453125 C-335.18436613 368.9756168 -339.10504235 364.65475432 -343 360 C-343.76183594 359.12601562 -344.52367187 358.25203125 -345.30859375 357.3515625 C-355.933059 344.98674022 -364.14240442 331.77079004 -371 317 C-371.53367187 315.88367188 -372.06734375 314.76734375 -372.6171875 313.6171875 C-391.86472108 271.43217866 -390.91750842 222.43511312 -374.96630859 179.45117188 C-372.44518104 173.05599232 -369.29980271 167.02058042 -366 161 C-365.35537337 159.78650899 -364.71084108 158.57296787 -364.06640625 157.359375 C-359.48762598 148.89725214 -354.08693739 141.40772894 -348 134 C-347.53045898 133.42217773 -347.06091797 132.84435547 -346.57714844 132.24902344 C-317.29270508 96.38292592 -275.39723317 75.03100808 -229.609375 69.59765625 C-186.98676747 65.76582084 -145.35134644 77.00874916 -110 101 C-109.59056152 100.1186438 -109.59056152 100.1186438 -109.17285156 99.21948242 C-108.02889681 97.05468379 -106.80035339 95.3633616 -105.234375 93.48828125 C-104.68120605 92.8216748 -104.12803711 92.15506836 -103.55810547 91.46826172 C-102.96143066 90.75686035 -102.36475586 90.04545898 -101.75 89.3125 C-100.47649725 87.78000214 -99.20306163 86.24744849 -97.9296875 84.71484375 C-96.95080566 83.54091064 -96.95080566 83.54091064 -95.95214844 82.34326172 C-82.56809515 66.27771101 -69.43749009 50.07533503 -56.93359375 33.3125 C-56.30952637 32.49724854 -55.68545898 31.68199707 -55.04248047 30.84204102 C-53.49105625 28.68328781 -52.13550589 26.57691684 -50.78955078 24.29663086 C-43.48092013 12.43899357 -35.07038425 9.23906798 -22 5.5625 C-20.19515482 5.00929759 -18.39174813 4.45137929 -16.58984375 3.88867188 C-3.93893752 0 -3.93893752 0 0 0 Z " fill="#FEBCB9" transform="translate(418,38)"/>
<path d="M0 0 C-0.11532699 2.50077472 -0.24202925 5.00014998 -0.375 7.5 C-0.4059375 8.19609375 -0.436875 8.8921875 -0.46875 9.609375 C-0.92507902 17.82329739 -2.49010891 24.06836632 -7.3125 30.875 C-7.75126465 31.51228027 -8.1900293 32.14956055 -8.64208984 32.80615234 C-10.07997791 34.88154255 -11.53758974 36.94182835 -13 39 C-13.48936035 39.69416016 -13.9787207 40.38832031 -14.48291016 41.10351562 C-22.79307183 52.86658586 -31.51534028 64.30935499 -40.27441406 75.73974609 C-42.41250629 78.54032021 -44.52158797 81.36079573 -46.625 84.1875 C-54.88651024 95.22902415 -63.3963794 106.086113 -72.0625 116.8125 C-72.58618164 117.46379883 -73.10986328 118.11509766 -73.64941406 118.78613281 C-76.59112923 122.40480377 -79.68251819 125.71509575 -83 129 C-84.39872776 130.646804 -85.77337408 132.31432205 -87.125 134 C-90.53311015 138.21201653 -93.98928705 142.37378039 -97.5 146.5 C-100.87305284 150.46884613 -104.21177184 154.46017683 -107.5 158.5 C-111.24917489 163.10612915 -115.07185188 167.643896 -118.91845703 172.16845703 C-121.77846938 175.5385099 -124.59255733 178.94026308 -127.375 182.375 C-132.02027055 188.08015403 -136.84156796 193.62378615 -141.671875 199.171875 C-144.81941686 202.78734411 -147.94523933 206.42091218 -151.0625 210.0625 C-151.79557373 210.91823608 -151.79557373 210.91823608 -152.54345703 211.79125977 C-155.06602302 214.7370276 -157.58516963 217.6856762 -160.1015625 220.63671875 C-164.65903924 225.97578481 -169.22903586 231.29262575 -173.9375 236.5 C-174.64519531 237.29019531 -175.35289062 238.08039063 -176.08203125 238.89453125 C-177.26046214 240.18816516 -178.46184491 241.46184491 -179.69921875 242.69921875 C-181.3241853 244.30849822 -181.3241853 244.30849822 -183 247 C-182.62464383 252.07930418 -181.28324616 256.73882094 -179.6640625 261.5390625 C-179.31190674 262.60432915 -179.31190674 262.60432915 -178.95263672 263.69111633 C-178.1843598 266.0050327 -177.40588665 268.31531054 -176.625 270.625 C-176.35645203 271.42277863 -176.08790405 272.22055725 -175.81121826 273.04251099 C-168.75140065 293.98103313 -161.33301249 314.66077577 -151.8125 334.625 C-151.25449707 335.80441162 -150.69649414 336.98382324 -150.12158203 338.19897461 C-145.84676607 346.93733045 -140.69968709 354.65940197 -134.43359375 362.09375 C-130.57189642 366.74894678 -128.41654462 369.81365485 -128.9375 376 C-129.42225365 378.80260935 -130.09929317 381.29787951 -131 384 C-166.03647425 388.64038202 -166.03647425 388.64038202 -176.55712891 383.83105469 C-180.23599992 380.88757336 -182.22352992 377.18434197 -184.09765625 372.92382812 C-185.54947035 369.82851019 -187.58092739 367.30155729 -189.625 364.5625 C-204.35550277 342.82982162 -216.73606989 319.14387896 -227 295 C-229.06421075 294.77809381 -229.06421075 294.77809381 -230.40112305 296.25 C-231.19836792 297.11625 -231.19836792 297.11625 -232.01171875 298 C-232.89561279 298.95350342 -232.89561279 298.95350342 -233.79736328 299.92626953 C-234.4211084 300.61060059 -235.04485352 301.29493164 -235.6875 302 C-236.32671387 302.69335449 -236.96592773 303.38670898 -237.62451172 304.10107422 C-241.20238143 307.99348193 -244.7289199 311.92402259 -248.1796875 315.9296875 C-252.18160971 320.48122993 -256.34353211 324.89177947 -260.46240234 329.33740234 C-262.3816395 331.41266513 -264.29479952 333.49331961 -266.20019531 335.58129883 C-267.11153245 336.57217382 -268.0315827 337.55510239 -268.95996094 338.5300293 C-271.33151957 341.04219582 -273.2668697 343.40483991 -275.18359375 346.3125 C-279.61689453 352.53257799 -282.7829495 355.07233019 -290.48828125 356.3828125 C-296.31599254 357.12030371 -302.14697235 357.55037899 -308.01489258 357.80151367 C-311.06309482 358.00419531 -313.99668963 358.45030319 -317 359 C-321.93532562 335.71308349 -321.93532562 335.71308349 -318.07617188 326.88720703 C-315.38924599 323.14254668 -311.716069 320.63801155 -308 318 C-306.70298205 316.62625007 -305.44622506 315.2123577 -304.25 313.75 C-302.09113517 311.22104406 -299.87224102 308.83025445 -297.5 306.5 C-295.20673964 304.24202057 -293.03571972 301.94003496 -290.9375 299.5 C-286.88631113 294.80244167 -282.63667146 290.29729165 -278.39624023 285.77148438 C-274.74071441 281.8683962 -271.10674988 277.94821733 -267.5 274 C-263.21184154 269.31042403 -258.89577026 264.64792681 -254.5625 260 C-253.67498047 259.04673828 -253.67498047 259.04673828 -252.76953125 258.07421875 C-252.2075 257.47222656 -251.64546875 256.87023437 -251.06640625 256.25 C-250.53934082 255.67765625 -250.01227539 255.1053125 -249.46923828 254.515625 C-248 253 -248 253 -245.52734375 251 C-243.63543265 248.98975507 -243.63543265 248.98975507 -244.29077148 245.78222656 C-244.95166573 242.25776061 -245.79294431 238.91777321 -246.8203125 235.484375 C-253.5780509 212.38984971 -258.47760475 189.19553487 -262.40380859 165.48168945 C-263.06074654 161.64524715 -263.79888282 157.83268564 -264.59375 154.02270508 C-265.12049672 151.40005089 -265.56695979 148.78510055 -265.78125 146.1171875 C-265.95691883 143.90631065 -265.95691883 143.90631065 -266.65625 141.4453125 C-267.23274639 138.05359206 -267.23982074 136.23681771 -266 133 C-261.88564121 128.86966029 -256.47390674 126.17557311 -251.42431641 123.36181641 C-247.65430585 121.24408036 -243.99178857 118.95785794 -240.3125 116.6875 C-238.82177005 115.78229601 -237.3308802 114.87735529 -235.83984375 113.97265625 C-228.47914656 109.47760917 -221.22704767 104.80974005 -213.9609375 100.1640625 C-213.12272461 99.63071289 -212.28451172 99.09736328 -211.42089844 98.54785156 C-209.83451199 97.53356252 -208.2541474 96.50977857 -206.68066406 95.47558594 C-205.62057129 94.78770996 -205.62057129 94.78770996 -204.5390625 94.0859375 C-203.61794678 93.47951416 -203.61794678 93.47951416 -202.67822266 92.86083984 C-201 92 -201 92 -198 92 C-197.98160568 92.57072235 -197.96321136 93.1414447 -197.94425964 93.72946167 C-197.13088388 118.75805018 -196.277543 143.7725157 -194.4375 168.75 C-194.37356049 169.62219177 -194.30962097 170.49438354 -194.2437439 171.39300537 C-194.06081719 173.86126899 -193.87377004 176.32916 -193.68359375 178.796875 C-193.60241302 179.85296463 -193.60241302 179.85296463 -193.51959229 180.9303894 C-193.11738805 185.96610427 -192.58147816 190.98199975 -192 196 C-183.50707892 186.96426753 -183.50707892 186.96426753 -175.5 177.5 C-172.15697842 173.33333543 -168.64883069 169.39582142 -165 165.5 C-160.52081908 160.71685959 -156.31548369 155.79184792 -152.2109375 150.6796875 C-149.8906505 147.86746685 -147.46928866 145.18202737 -145 142.5 C-140.96414322 138.11022962 -137.15920458 133.59099984 -133.41796875 128.94921875 C-131.15686852 126.19133398 -128.8427318 123.49291806 -126.50317383 120.80200195 C-121.73609998 115.31536979 -117.25500669 109.76362282 -113.04296875 103.83203125 C-106.56474504 94.85170202 -99.51098577 86.33808472 -92.27050781 77.96728516 C-88.78471464 73.93378928 -85.40102272 69.83751236 -82.09765625 65.65234375 C-80.53409451 63.6753262 -78.95929969 61.71093458 -77.37109375 59.75390625 C-70.35562988 51.08970711 -63.59953822 42.24795827 -56.93359375 33.3125 C-56.30952637 32.49724854 -55.68545898 31.68199707 -55.04248047 30.84204102 C-53.49105625 28.68328781 -52.13550589 26.57691684 -50.78955078 24.29663086 C-43.48092013 12.43899357 -35.07038425 9.23906798 -22 5.5625 C-20.19515482 5.00929759 -18.39174813 4.45137929 -16.58984375 3.88867188 C-3.93893752 0 -3.93893752 0 0 0 Z " fill="#FE0000" transform="translate(418,38)"/>
</svg>
